<?xml version="1.0" standalone="no"?>
<!DOCTYPE svg PUBLIC "-//W3C//DTD SVG 20010904//EN"
 "http://www.w3.org/TR/2001/REC-SVG-20010904/DTD/svg10.dtd">
<svg version="1.0" xmlns="http://www.w3.org/2000/svg"
 width="200.000000pt" height="200.000000pt" viewBox="0 0 200.000000 200.000000"
 preserveAspectRatio="xMidYMid meet">
<metadata>
Created by potrace 1.10, written by Peter Selinger 2001-2011
</metadata>
<g transform="translate(0.000000,200.000000) scale(0.100000,-0.100000)"
fill="#000000" stroke="none">
<path d="M885 1397 c-118 -40 -207 -117 -258 -225 -29 -61 -32 -75 -32 -167 0
-92 3 -106 32 -167 41 -88 113 -160 201 -201 62 -30 75 -32 172 -32 97 0 110
2 172 32 88 41 160 113 201 201 29 61 32 75 32 167 0 92 -3 106 -32 167 -41
88 -113 160 -201 201 -57 27 -80 32 -157 34 -55 2 -105 -2 -130 -10z m80 -27
c-20 -9 -20 -9 0 -10 20 -2 20 -2 0 -8 -20 -5 -20 -5 0 -13 19 -7 19 -8 -2 -8
-13 -1 -23 3 -23 8 0 5 -3 16 -6 25 -5 12 0 16 22 15 25 0 26 -1 9 -9z m95
-16 c0 -21 -4 -25 -22 -22 -35 5 -33 48 3 48 14 0 19 -7 19 -26z m-160 1 c0
-7 8 -19 18 -24 15 -9 15 -10 -5 -11 -14 0 -23 6 -23 15 0 8 -7 15 -15 15 -12
0 -14 -4 -5 -19 6 -12 6 -22 1 -26 -5 -3 -12 4 -16 15 -3 11 -12 20 -18 21
-12 1 41 28 56 29 4 0 7 -7 7 -15z m220 5 c0 -5 -8 -14 -17 -19 -10 -6 -12
-11 -5 -11 6 0 12 -4 12 -9 0 -5 -9 -7 -20 -4 -19 5 -27 33 -13 46 10 10 43 8
43 -3z m55 -21 c4 -6 4 -13 0 -17 -4 -4 -10 -1 -12 6 -6 17 -23 15 -23 -2 0
-21 33 -25 48 -6 10 13 11 11 6 -12 -7 -32 2 -36 23 -10 10 11 13 12 11 3 -3
-8 -12 -19 -22 -25 -13 -9 -20 -7 -30 7 -7 9 -20 17 -29 17 -20 0 -31 16 -23
35 6 17 42 20 51 4z m-342 -30 c4 -15 2 -19 -9 -15 -8 3 -14 1 -14 -5 0 -5
-12 -21 -27 -35 -24 -22 -28 -23 -44 -9 -13 13 -18 13 -21 3 -3 -7 2 -18 11
-25 9 -6 13 -15 9 -19 -4 -4 -14 -1 -22 5 -8 7 -21 9 -28 5 -6 -4 -2 7 11 24
25 35 31 38 49 20 16 -16 28 -2 12 17 -10 12 -8 18 11 35 31 25 55 25 62 -1z
m273 -26 c67 -23 154 -110 177 -177 38 -112 12 -221 -73 -307 -63 -64 -123
-89 -210 -89 -87 0 -147 25 -211 89 -85 86 -109 181 -73 301 20 68 107 159
174 183 60 21 155 21 216 0z m168 -15 c7 -11 5 -20 -7 -32 -20 -21 -29 -20
-25 2 2 12 -3 16 -17 13 -20 -3 -20 -3 -1 18 21 24 34 23 50 -1z m60 -80 c10
-16 16 -35 13 -43 -4 -8 1 -19 11 -24 9 -5 13 -13 9 -17 -4 -4 -12 -3 -18 3
-6 6 -18 9 -25 6 -18 -7 -17 7 1 31 19 25 10 37 -23 30 -25 -5 -26 -4 -8 10
10 8 15 20 11 26 -5 8 -11 8 -21 -1 -8 -6 -18 -9 -22 -5 -4 4 1 14 12 21 21
16 29 10 60 -37z m-640 6 c20 -8 21 -38 1 -54 -18 -15 -20 0 -2 20 6 8 2 6
-10 -3 -25 -22 -39 -8 -23 23 12 22 12 22 34 14z m-24 -114 c0 -25 -18 -36
-26 -16 -8 21 3 49 16 41 5 -3 10 -15 10 -25z m-14 -72 c4 -6 0 -16 -9 -23
-14 -10 -14 -12 1 -21 17 -11 9 -34 -14 -34 -17 0 -19 20 -1 20 6 0 3 6 -7 12
-19 11 -19 11 -1 24 17 13 17 14 2 14 -9 0 -17 5 -17 10 0 14 37 13 46 -2z
m703 -17 c1 16 31 36 31 21 -1 -28 -15 -52 -31 -52 -15 0 -19 7 -18 33 1 30 1
31 9 7 5 -15 8 -18 9 -9z m9 -50 c10 -6 10 -10 -3 -21 -12 -10 -15 -10 -15 0
0 8 -3 10 -7 6 -5 -4 1 -14 11 -22 19 -14 19 -14 -1 -14 -28 0 -33 9 -22 38 9
24 16 26 37 13z m-714 -27 c20 -8 21 -28 1 -44 -12 -10 -15 -9 -15 7 0 10 -5
24 -12 31 -13 13 -1 16 26 6z m694 -58 c-3 -24 -38 -30 -46 -8 -3 11 0 12 17
3 17 -10 21 -9 21 4 0 8 -4 15 -10 15 -5 0 -10 4 -10 10 0 5 7 7 16 3 8 -3 14
-15 12 -27z m-661 2 c-2 -7 3 -18 12 -25 15 -11 14 -12 -1 -13 -9 0 -19 -6
-21 -12 -3 -7 -6 -3 -6 10 -1 12 -7 22 -13 22 -8 0 -5 7 6 15 24 18 29 19 23
3z m632 -37 c12 -8 12 -12 2 -25 -18 -22 -41 -20 -41 2 0 31 14 39 39 23z
m-592 -22 c8 -8 7 -16 -5 -28 -15 -15 -18 -15 -29 -1 -8 10 -8 19 -1 27 13 16
21 16 35 2z m539 -18 c-3 -5 1 -12 10 -15 13 -5 14 -9 3 -22 -11 -13 -14 -13
-27 0 -13 12 -13 18 -2 30 13 17 25 22 16 7z m-463 -50 c32 -17 37 -51 7 -51
-25 0 -38 29 -19 41 20 12 2 11 -22 -1 -17 -10 -19 -7 -19 22 1 28 3 31 13 18
7 -8 24 -21 40 -29z m422 9 c-3 -6 1 -7 9 -4 11 4 16 0 16 -10 0 -21 -28 -32
-42 -18 -12 12 -4 42 12 42 6 0 8 -4 5 -10z m-50 -50 c16 -17 16 -20 2 -20 -8
0 -23 -3 -31 -6 -14 -6 -17 10 -7 44 3 8 20 -1 36 -18z m-318 -4 c-9 -22 5
-28 19 -8 15 19 19 5 5 -17 -5 -8 -16 -11 -25 -8 -18 7 -22 47 -5 47 6 0 9 -6
6 -14z m73 -6 c12 -6 16 -17 13 -30 -3 -11 -10 -17 -15 -14 -5 3 -7 13 -3 22
5 13 2 12 -15 -3 -20 -18 -25 -11 -14 19 7 19 9 19 34 6z m89 -9 c19 -12 6
-41 -19 -41 -15 0 -20 7 -20 25 0 26 14 31 39 16z m67 -13 c18 -21 18 -21 0
-15 -10 4 -25 2 -32 -4 -15 -12 -18 -2 -8 25 8 21 17 20 40 -6z"/>
<path d="M930 1271 c-173 -57 -252 -230 -176 -384 49 -101 131 -152 246 -152
120 1 204 55 253 165 43 96 12 240 -65 305 -71 60 -187 90 -258 66z m87 -40
c11 -17 1 -38 -69 -157 -44 -76 -83 -144 -85 -151 -4 -10 27 -13 141 -13 l146
0 -12 25 c-11 24 -15 25 -105 25 -52 0 -93 4 -91 8 9 22 111 193 113 190 1 -2
18 -31 38 -65 l36 -63 -25 0 c-16 0 -28 8 -36 25 l-12 26 -26 -43 -27 -43 74
-5 75 -5 34 -57 33 -58 -218 0 -219 0 106 190 c59 104 109 189 112 190 3 0 11
-9 17 -19z m145 -60 c46 -48 58 -69 68 -114 8 -35 9 -64 3 -82 l-9 -27 -38 46
c-20 25 -35 46 -31 46 8 0 -33 78 -60 115 -40 54 -39 64 5 74 3 0 31 -26 62
-58z m-236 36 c-1 -8 -21 -45 -44 -83 -23 -39 -42 -76 -42 -82 0 -7 -4 -12
-10 -12 -5 0 -10 -5 -10 -11 0 -6 -10 -24 -21 -41 -17 -23 -24 -27 -30 -16
-22 34 3 142 44 188 51 58 118 92 113 57z m214 -385 c0 -5 -21 -19 -46 -32
-46 -24 -144 -35 -144 -16 0 5 -3 6 -6 3 -8 -8 -84 33 -84 45 0 4 63 8 140 8
77 0 140 -4 140 -8z"/>
<path d="M577 1163 c-17 -37 -22 -70 -23 -143 l-2 -95 8 90 c8 90 18 134 39
174 7 11 9 21 6 21 -3 0 -16 -21 -28 -47z"/>
</g>
</svg>
